<?xml version="1.0" encoding="UTF-8" standalone="no"?>
<svg xmlns:rdf="http://www.w3.org/1999/02/22-rdf-syntax-ns#" xmlns="http://www.w3.org/2000/svg" height="47.134998mm" width="71.407623mm" version="1.1" xmlns:cc="http://creativecommons.org/ns#" xmlns:dc="http://purl.org/dc/elements/1.1/" viewBox="0 0 253.01914 167.01377">
 <defs>
  <clipPath id="a" clipPathUnits="userSpaceOnUse">
   <path d="m19.393 7.552h119.994v40.267h-119.994v-40.267z"/>
  </clipPath>
 </defs>
 <g transform="translate(-45.866272,-164.33863)">
  <g transform="matrix(4.1477303,0,0,-4.1477303,-34.572247,362.67645)">
   <g clip-path="url(#a)">
    <g transform="translate(80.3498,30.8264)">
     <path d="m0 0c-0.053 2.1-0.091 4.217-0.275 6.31-0.111 1.273-0.421 2.544-1.084 3.651-1.436 2.395-3.81 3.962-6.574 4.358-0.037 0.005-0.072 0.004-0.107 0.005-0.036 0.009-0.071 0.02-0.109 0.025-2.836 0.341-5.678 0.63-8.526 0.843-4.585 0.344-9.182 0.52-13.781 0.528v-0.011c-4.597-0.008-9.195-0.184-13.78-0.527-2.848-0.214-5.69-0.504-8.525-0.845-0.039-0.005-0.074-0.015-0.11-0.024-0.035-0.001-0.07 0-0.107-0.005-2.764-0.396-5.138-1.963-6.574-4.358-0.663-1.108-0.972-2.379-1.084-3.651-0.183-2.094-0.222-4.21-0.275-6.311l-0.001-0.077c-0.034-1.368-0.047-2.737-0.044-4.107 0.013-2.181 0.086-4.236 0.21-6.79 0.154-3.152 0.35-5.927 2.607-8.333 2.253-2.402 5.382-2.639 8.46-2.964 4.16-0.44 8.335-0.722 12.515-0.876 2.236-0.084 4.472-0.119 6.708-0.115v0.011c2.237-0.004 4.473 0.032 6.709 0.115 4.18 0.155 8.355 0.437 12.515 0.876 3.078 0.326 6.207 0.563 8.46 2.965 2.257 2.406 2.453 5.18 2.607 8.333 0.125 2.553 0.198 4.608 0.21 6.79 0.003 1.369-0.01 2.738-0.043 4.107l-0.002 0.077z" fill="#af5928"/>
    </g>
    <g transform="translate(80.3498,32.0984)">
     <path d="m0 0c-0.053 2.1-0.091 4.217-0.275 6.31-0.111 1.273-0.421 2.544-1.084 3.651-1.436 2.395-3.81 3.962-6.574 4.358-0.037 0.005-0.072 0.004-0.107 0.005-0.036 0.009-0.071 0.02-0.109 0.025-2.836 0.341-5.678 0.63-8.526 0.843-4.585 0.344-9.182 0.52-13.781 0.528v-0.011c-4.597-0.008-9.195-0.184-13.78-0.527-2.848-0.214-5.69-0.504-8.525-0.845-0.039-0.005-0.074-0.015-0.11-0.024-0.035-0.001-0.07 0-0.107-0.005-2.764-0.396-5.138-1.963-6.574-4.358-0.663-1.108-0.972-2.379-1.084-3.651-0.183-2.094-0.222-4.21-0.275-6.311l-0.001-0.077c-0.034-1.368-0.047-2.737-0.044-4.107 0.013-2.181 0.086-4.236 0.21-6.79 0.154-3.152 0.35-5.927 2.607-8.333 2.253-2.402 5.382-2.639 8.46-2.964 4.16-0.44 8.335-0.722 12.515-0.876 2.236-0.084 4.472-0.119 6.708-0.115v0.011c2.237-0.004 4.473 0.032 6.709 0.115 4.18 0.155 8.355 0.437 12.515 0.876 3.078 0.326 6.207 0.563 8.46 2.965 2.257 2.406 2.453 5.18 2.607 8.333 0.125 2.553 0.198 4.608 0.21 6.79 0.003 1.369-0.01 2.738-0.043 4.107l-0.002 0.077z" fill="#ec6e24"/>
    </g>
    <g transform="translate(80.3498,32.0984)">
     <path d="m0 0c-0.053 2.1-0.091 4.217-0.275 6.31-0.111 1.273-0.421 2.544-1.084 3.651-1.436 2.395-3.81 3.962-6.574 4.358-0.037 0.005-0.072 0.004-0.107 0.005-0.036 0.009-0.071 0.02-0.109 0.025-2.836 0.341-5.678 0.63-8.526 0.843-4.585 0.344-9.182 0.52-13.781 0.528v-0.011c-4.597-0.008-9.195-0.184-13.78-0.527-2.848-0.214-5.69-0.504-8.525-0.845-0.039-0.005-0.074-0.015-0.11-0.024-0.035-0.001-0.07 0-0.107-0.005-2.764-0.396-5.138-1.963-6.574-4.358-0.663-1.108-0.972-2.379-1.084-3.651-0.183-2.094-0.222-4.21-0.275-6.311l-0.001-0.077c-0.034-1.368-0.047-2.737-0.044-4.107 0.013-2.181 0.086-4.236 0.21-6.79 0.154-3.152 0.35-5.927 2.607-8.333 2.253-2.402 5.382-2.639 8.46-2.964 4.16-0.44 8.335-0.722 12.515-0.876 2.236-0.084 4.472-0.119 6.708-0.115v0.011c2.237-0.004 4.473 0.032 6.709 0.115 4.18 0.155 8.355 0.437 12.515 0.876 3.078 0.326 6.207 0.563 8.46 2.965 2.257 2.406 2.453 5.18 2.607 8.333 0.125 2.553 0.198 4.608 0.21 6.79 0.003 1.369-0.01 2.738-0.043 4.107l-0.002 0.077z" fill="#ec6e24"/>
    </g>
    <g transform="translate(80.3498,32.0984)">
     <path d="m0 0c-0.053 2.1-0.091 4.217-0.275 6.31-0.111 1.273-0.421 2.544-1.084 3.651-1.436 2.395-3.81 3.962-6.574 4.358-0.037 0.005-0.072 0.004-0.107 0.005-0.036 0.009-0.071 0.02-0.109 0.025-2.836 0.341-5.678 0.63-8.526 0.843-4.585 0.344-9.182 0.52-13.781 0.528v-0.011c-4.597-0.008-9.195-0.184-13.78-0.527-2.848-0.214-5.69-0.504-8.525-0.845-0.039-0.005-0.074-0.015-0.11-0.024-0.035-0.001-0.07 0-0.107-0.005-2.764-0.396-5.138-1.963-6.574-4.358-0.663-1.108-0.972-2.379-1.084-3.651-0.183-2.094-0.222-4.21-0.275-6.311l-0.001-0.077c-0.034-1.368-0.047-2.737-0.044-4.107 0.013-2.181 0.086-4.236 0.21-6.79 0.154-3.152 0.35-5.927 2.607-8.333 2.253-2.402 5.382-2.639 8.46-2.964 4.16-0.44 8.335-0.722 12.515-0.876 2.236-0.084 4.472-0.119 6.708-0.115v0.011c2.237-0.004 4.473 0.032 6.709 0.115 4.18 0.155 8.355 0.437 12.515 0.876 3.078 0.326 6.207 0.563 8.46 2.965 2.257 2.406 2.453 5.18 2.607 8.333 0.125 2.553 0.198 4.608 0.21 6.79 0.003 1.369-0.01 2.738-0.043 4.107l-0.002 0.077z" fill="#ec6e24"/>
    </g>
    <g transform="translate(52.8249,37.6059)">
     <path d="m0 0c0 0.677-0.482 0.899-0.99 0.899h-1.876v-1.785h1.876c0.417 0 0.99 0.221 0.99 0.886" fill="#f57f26"/>
    </g>
    <g transform="translate(61.4068,23.109)">
     <path d="m0 0h-1.928v-2.098h2.032c0.73 0 1.121 0.391 1.121 1.095 0 0.69-0.548 1.003-1.225 1.003" fill="#f57f26"/>
    </g>
    <g transform="translate(51.8999,35.1564)">
     <path d="m0 0h-1.941v-2.137h1.941c0.769 0 1.303 0.274 1.303 1.042 0 0.821-0.573 1.095-1.303 1.095" fill="#f57f26"/>
    </g>
    <g transform="translate(30.4872,22.4706)">
     <path d="m0 0-1.055-3.258h2.11l-1.029 3.258h-0.026z" fill="#f57f26"/>
    </g>
    <g transform="translate(30.3213,37.8013)">
     <path d="m0 0h-0.026l-1.055-3.258h2.111l-1.03 3.258z" fill="#f57f26"/>
    </g>
    <g transform="translate(70.2209,38.4397)">
     <path d="m0 0h-1.928v-2.098h2.032c0.73 0 1.121 0.391 1.121 1.095 0 0.69-0.548 1.003-1.225 1.003" fill="#f57f26"/>
    </g>
    <g transform="translate(29.084,40.3812)">
     <path d="m0 0h2.462l3.479-9.303h-2.528l-0.573 1.668h-3.244l-0.587-1.668h-2.488l3.479 9.303z" fill="#ec6e24"/>
    </g>
    <g transform="translate(32.6892,15.7475)">
     <path d="m0 0-0.574 1.668h-3.244l-0.586-1.668h-2.489l3.48 9.303h2.462l3.478-9.303h-2.527z" fill="#ec6e24"/>
    </g>
    <g transform="translate(42.6983,15.7475)">
     <path d="m0 0h-6.762v9.303h2.423v-7.218h4.339v-2.085z" fill="#ec6e24"/>
    </g>
    <g transform="translate(41.8533,31.0781)">
     <path d="m0 0h-1.85l-1.954 7.062h-0.027v-7.062h-2.28v9.303h3.57l1.603-6.202h0.026l1.602 6.202h3.571v-9.303h-2.281v7.062h-0.026l-1.954-7.062z" fill="#ec6e24"/>
    </g>
    <g transform="translate(46.0838,18.7883)">
     <path d="m0 0c-0.648-0.648-1.698-0.648-2.347 0-0.648 0.649-0.648 1.699 0 2.347 0.649 0.649 1.699 0.649 2.347 0 0.648-0.648 0.648-1.698 0-2.347" fill="#ec6e24"/>
    </g>
    <g transform="translate(49.1304,15.7423)">
     <path d="m0 0-0.747-0.747-1.494 1.493 0.747 0.748c1.503 1.502 1.503 3.948 0 5.451l-0.747 0.747 1.494 1.494 0.747-0.747c2.327-2.326 2.327-6.112 0-8.439" fill="#ec6e24"/>
    </g>
    <g transform="translate(52.1232,12.7492)">
     <path d="m0 0-0.747-0.747-1.494 1.494 0.747 0.747c3.153 3.153 3.153 8.285 0 11.438l-0.747 0.747 1.494 1.494 0.747-0.748c3.977-3.977 3.977-10.449 0-14.425" fill="#ec6e24"/>
    </g>
    <g transform="translate(52.0042,31.0781)">
     <path d="m0 0h-4.469v9.303h4.352c1.602 0.026 3.361-0.391 3.361-2.332 0-0.834-0.495-1.512-1.225-1.877 0.991-0.286 1.603-1.146 1.603-2.201 0-2.216-1.629-2.893-3.622-2.893" fill="#ec6e24"/>
    </g>
    <g transform="translate(56.9431,40.3812)">
     <path d="m0 0h7.414v-1.942h-4.99v-1.628h4.56v-1.876h-4.56v-1.772h5.12v-2.085h-7.544v9.303z" fill="#ec6e24"/>
    </g>
    <g transform="translate(62.9443,15.7475)">
     <path d="m0 0s-0.179 1.047-0.274 1.486c-0.198 0.919-0.336 1.902-1.355 1.902h-1.837v-3.388h-2.423v9.303h4.742c1.642 0 3.258-0.743 3.258-2.619 0-1.004-0.482-1.955-1.459-2.332v-0.027c0.798-0.275 1.202-1.351 1.355-2.227 0.081-0.471 0.39-2.098 0.39-2.098h-2.397z" fill="#ec6e24"/>
    </g>
    <g transform="translate(73.9994,22.9652)">
     <path d="m0 0h-2.776v-7.218h-2.423v7.218h-2.775v2.085h7.974v-2.085z" fill="#ec6e24"/>
    </g>
    <g transform="translate(71.7586,31.0781)">
     <path d="m0 0s-0.179 1.048-0.274 1.485c-0.198 0.919-0.337 1.903-1.355 1.903h-1.837v-3.388h-2.424v9.303h4.743c1.642 0 3.257-0.743 3.257-2.619 0-1.003-0.481-1.954-1.459-2.332v-0.026c0.799-0.276 1.203-1.352 1.356-2.228 0.081-0.471 0.39-2.098 0.39-2.098h-2.397z" fill="#ec6e24"/>
    </g>
    <g transform="translate(30.2954,37.8013)">
     <path d="m0 0h0.026l1.029-3.258h-2.11l1.055 3.258zm-1.616-5.055h3.245l0.573-1.668h2.528l-3.479 9.303h-2.462l-3.48-9.303h2.489l0.586 1.668z" fill="#fff"/>
    </g>
    <g transform="translate(51.8999,33.0198)">
     <path d="m0 0h-1.941v2.137h1.941c0.73 0 1.303-0.274 1.303-1.095 0-0.768-0.534-1.042-1.303-1.042m-1.941 5.485h1.876c0.508 0 0.99-0.221 0.99-0.899 0-0.664-0.573-0.887-0.99-0.887h-1.876v1.786zm4.065-2.332c0.73 0.365 1.225 1.042 1.225 1.876 0 1.941-1.76 2.358-3.362 2.332h-4.352v-9.303h4.469c1.994 0 3.622 0.678 3.622 2.893 0 1.055-0.612 1.915-1.602 2.202" fill="#fff"/>
    </g>
    <g transform="translate(64.4874,33.1627)">
     <path d="m0 0h-5.121v1.772h4.561v1.876h-4.561v1.629h4.99v1.942h-7.413v-9.304h7.544v2.085z" fill="#fff"/>
    </g>
    <g transform="translate(70.3254,36.3422)">
     <path d="m0 0h-2.033v2.098h1.929c0.677 0 1.224-0.314 1.224-1.004 0-0.704-0.391-1.094-1.12-1.094m2.084-0.938v0.026c0.977 0.377 1.46 1.329 1.46 2.332 0 1.876-1.616 2.619-3.257 2.619h-4.743v-9.303h2.423v3.387h1.838c1.018 0 1.156-0.983 1.355-1.902 0.094-0.438 0.273-1.485 0.273-1.485h2.398s-0.31 1.627-0.391 2.098c-0.153 0.876-0.558 1.951-1.356 2.228" fill="#fff"/>
    </g>
    <g transform="translate(61.5111,21.0107)">
     <path d="m0 0h-2.033v2.098h1.929c0.677 0 1.224-0.313 1.224-1.003 0-0.704-0.39-1.095-1.12-1.095m2.085-0.938v0.026c0.977 0.378 1.459 1.329 1.459 2.333 0 1.876-1.616 2.618-3.257 2.618h-4.743v-9.302h2.423v3.387h1.838c1.018 0 1.156-0.982 1.355-1.902 0.094-0.438 0.273-1.485 0.273-1.485h2.398s-0.31 1.627-0.391 2.097c-0.153 0.877-0.557 1.953-1.355 2.228" fill="#fff"/>
    </g>
    <g transform="translate(29.4316,19.2127)">
     <path d="m0 0 1.055 3.258h0.027l1.029-3.258h-2.111zm-0.156 5.838-3.479-9.303h2.488l0.587 1.668h3.244l0.574-1.668h2.527l-3.478 9.303h-2.463z" fill="#fff"/>
    </g>
    <g transform="translate(66.0254,22.9653)">
     <path d="m0 0h2.775v-7.218h2.424v7.218h2.775v2.085h-7.974v-2.085z" fill="#fff"/>
    </g>
    <g transform="translate(43.8337,38.1399)">
     <path d="m0 0v-7.062h2.28v9.303h-3.57l-1.602-6.202h-0.027l-1.602 6.202h-3.57v-9.303h2.28v7.062h0.026l1.954-7.062h1.851l1.954 7.062h0.026z" fill="#fff"/>
    </g>
    <g transform="translate(38.3596,25.0502)">
     <path d="m0 0h-2.423v-9.302h6.762v2.084h-4.339v7.218z" fill="#fff"/>
    </g>
    <g transform="translate(43.7373,21.1356)">
     <path d="m0 0c-0.648-0.649-0.648-1.699 0-2.347s1.699-0.648 2.347 0 0.648 1.698 0 2.347-1.699 0.649-2.347 0" fill="#fff"/>
    </g>
    <g transform="translate(49.1304,24.1817)">
     <path d="m0 0-0.747 0.747-1.494-1.494 0.747-0.747c1.503-1.503 1.503-3.949 0-5.452l-0.747-0.747 1.494-1.494 0.747 0.748c2.327 2.326 2.327 6.113 0 8.439" fill="#fff"/>
    </g>
    <g transform="translate(51.3761,27.9215)">
     <path d="m0 0-1.493-1.494 0.746-0.746c3.153-3.154 3.153-8.285 0-11.438l-0.746-0.748 1.493-1.493 0.747 0.747c3.977 3.976 3.977 10.448 0 14.425l-0.747 0.747z" fill="#fff"/>
    </g>
   </g>
  </g>
 </g>
</svg>
